PathFileType	3	(X/Y/Z)	RCH0000002 BBF 05.c3d
DataRate	CameraRate	NumFrames	NumMarkers	Units	OrigDataRate	OrigDataStartFrame	OrigNumFrames
100.0	100.0	14	23	mm	100.0	253	252
Frame#	Time	T2			T10			MAN			LASI			RASI			LPSI			RPSI			LPAT			LKNE			LANK			LMED			LHEE			LTOE			RPAT			RKNE			RANK			RMED			RHEE			RTOE			RTHI			LTHI			RTIB			LTIB			
		X1	Y1	Z1	X2	Y2	Z2	X3	Y3	Z3	X4	Y4	Z4	X5	Y5	Z5	X6	Y6	Z6	X7	Y7	Z7	X8	Y8	Z8	X9	Y9	Z9	X10	Y10	Z10	X11	Y11	Z11	X12	Y12	Z12	X13	Y13	Z13	X14	Y14	Z14	X15	Y15	Z15	X16	Y16	Z16	X17	Y17	Z17	X18	Y18	Z18	X19	Y19	Z19	X20	Y20	Z20	X21	Y21	Z21	X22	Y22	Z22	X23	Y23	Z23	

253	2.520	-274.36227	-55.24829	955.36991	-273.11664	-67.64402	771.56510	-142.89763	-52.03192	925.21731	-211.71716	49.59575	634.01194	-157.81970	-118.67756	621.25699	-300.34456	-40.74888	674.05509	-281.83984	-106.65850	665.00715	-275.89904	9.76104	347.32797	-338.58388	57.92479	327.47903	-489.09319	41.75913	93.08425	-475.83756	-25.22677	114.50352	-510.02872	4.37416	141.20457	-444.56414	5.11536	71.55663	-37.40155	-27.91362	406.55920	-54.09316	-87.44935	356.38248	-75.65855	-127.32604	90.89537	-104.87277	-63.62206	93.71453	-130.82352	-108.42471	116.32391	-41.76698	-81.41701	82.08727	-80.19778	-167.73375	457.50060	-314.54605	128.36498	449.84802	-46.06411	-167.69707	253.62306	-409.84867	115.59128	225.47437	
254	2.530	-261.25952	-56.41200	951.58678	-257.70595	-67.36585	767.92357	-129.34623	-52.29145	923.23978	-196.60961	49.91122	630.46980	-142.46748	-118.14878	618.57316	-285.10522	-40.21107	671.25206	-266.38750	-106.21698	662.80687	-261.26480	10.18887	343.21571	-324.16503	58.17560	324.14828	-481.68138	43.45341	95.13075	-469.03728	-23.66447	116.15039	-501.31160	6.72875	144.19954	-439.31640	5.86654	71.66716	-27.01102	-24.01126	400.57392	-43.26381	-84.31175	350.67050	-67.04102	-125.56374	85.94266	-96.93700	-62.05345	89.11056	-122.29810	-107.13970	111.52553	-33.53959	-79.30385	78.16006	-66.56166	-165.00011	452.08284	-299.94102	128.41308	446.61979	-35.36238	-164.64147	248.30928	-396.94486	116.52043	224.12855	
255	2.540	-248.21453	-57.47322	948.18389	-242.09646	-66.89692	764.67664	-115.83801	-52.34179	921.80958	-181.38938	50.04125	627.08175	-127.04405	-117.82371	616.47687	-269.78532	-39.69486	668.86777	-250.82940	-105.81484	661.29731	-245.91612	10.35849	339.19707	-308.97400	58.26077	320.82849	-473.15808	45.29122	97.38941	-461.24954	-21.98429	117.91572	-491.50462	9.20700	147.30606	-433.08964	6.77086	71.97897	-16.90532	-20.95328	394.73625	-33.06553	-81.89457	345.19031	-61.26493	-124.56214	81.68569	-91.60939	-61.14450	85.36936	-116.29235	-106.43017	107.76641	-28.11149	-78.04649	74.72018	-53.33990	-162.88522	446.98286	-284.80202	128.18765	443.50610	-26.36966	-162.32685	243.36537	-382.98041	117.39300	222.87358	
256	2.550	-235.26266	-58.33811	945.29678	-226.41138	-66.25171	761.96768	-102.42453	-52.14285	920.98769	-166.16146	49.94504	623.97414	-111.66500	-117.75281	615.08149	-254.49331	-39.24609	667.01204	-235.28716	-105.49104	660.55961	-229.97050	10.24330	335.43111	-293.14859	58.16286	317.67633	-463.55058	47.19065	99.89348	-452.42112	-20.26578	119.79986	-480.64613	11.65460	150.50487	-425.78909	7.83731	72.56792	-7.09881	-18.90516	389.36334	-23.47633	-80.31910	340.23131	-57.71715	-124.26832	78.24034	-88.34832	-60.87344	82.59100	-112.27755	-106.30495	105.10058	-24.89497	-77.56396	71.88096	-40.60161	-161.51374	442.44770	-269.22835	127.67559	440.65487	-18.76487	-160.82677	238.95438	-368.15644	118.15088	221.87056	
257	2.560	-222.44030	-58.92430	943.05845	-210.77326	-65.45857	759.93696	-89.15938	-51.66311	920.83455	-151.01352	49.58850	621.28770	-96.43272	-117.97880	614.48780	-239.31755	-38.90571	665.79865	-219.86619	-105.28050	660.66208	-213.52804	9.83608	332.10068	-276.81299	57.87060	314.86912	-452.89463	49.04989	102.68712	-442.48645	-18.60559	121.80626	-468.77664	13.89239	153.78583	-417.31427	9.06271	73.51294	2.34202	-17.97417	384.69718	-14.51980	-79.67435	336.02114	-55.76258	-124.58753	75.65315	-86.59439	-61.18427	80.80343	-109.70952	-106.74179	103.50307	-23.28301	-77.72997	69.69584	-28.42716	-160.97302	438.67268	-253.31874	126.87744	438.23110	-12.23617	-160.17230	235.17760	-352.68315	118.73377	221.30812	
258	2.570	-209.78292	-59.16760	941.58989	-195.29668	-64.55794	758.71076	-76.09508	-50.88215	921.40512	-136.01221	48.94864	619.16798	-81.42913	-118.53058	614.77531	-224.32244	-38.70809	665.33482	-204.64905	-105.21256	661.65355	-196.66197	9.15610	329.39764	-260.06758	57.38269	312.59021	-441.22455	50.75469	105.81496	-431.36663	-17.10873	123.93690	-455.92812	15.73224	157.14220	-407.56137	10.43046	74.88557	11.31067	-18.19857	380.88902	-6.25746	-80.00926	332.71079	-54.81594	-125.39771	73.90178	-85.82528	-61.99309	79.96416	-108.08879	-107.68757	102.87717	-22.71026	-78.39281	68.16007	-16.89673	-161.30315	435.78785	-237.16781	125.80864	436.40465	-6.52802	-160.35409	232.07492	-336.75859	119.08578	221.38219	
259	2.580	-197.32255	-59.02733	940.99028	-180.08208	-63.59935	758.39031	-63.27937	-49.79230	922.74250	-121.20176	48.01726	617.75349	-66.71165	-119.41888	615.99473	-209.54781	-38.67910	665.70973	-189.69212	-105.30930	663.55727	-179.41475	8.25194	327.50576	-242.98352	56.71023	311.01248	-428.56429	52.18759	109.30954	-418.97270	-15.87874	126.18776	-442.11573	16.99531	160.56374	-396.42827	11.90966	76.73928	19.67660	-19.54582	377.99987	1.22437	-81.32828	330.37266	-54.39367	-126.56505	72.90774	-85.59650	-63.19667	79.97273	-107.00390	-109.06225	103.07270	-22.69866	-79.39505	67.22160	-6.07968	-162.49317	433.85387	-220.86278	124.49935	435.33516	-1.47176	-161.32798	229.63651	-320.55002	119.16074	222.27180	
260	2.590	-185.08509	-58.48958	941.32800	-165.21115	-62.63698	759.04189	-50.75147	-48.39962	924.87099	-106.60506	46.80298	617.16291	-52.31273	-120.63404	618.16259	-195.01134	-38.83393	666.98374	-175.02613	-105.58345	666.36630	-161.79930	7.19872	326.58342	-225.60115	55.87728	310.28162	-414.92077	53.23880	113.17926	-405.21334	-15.00734	128.54561	-427.33373	17.53151	164.03062	-383.82164	13.45503	79.10036	27.30316	-21.91990	376.01550	7.83178	-83.59099	329.01052	-54.13838	-127.95784	72.55776	-85.56288	-64.68224	80.69086	-106.15165	-110.76618	103.91166	-22.88180	-80.59000	66.79746	3.97408	-164.48373	432.86726	-204.47948	122.99290	435.15565	3.00732	-163.02231	227.82176	-304.17844	118.92612	224.11408	
261	2.600	-173.08764	-57.56807	942.63356	-150.74438	-61.72463	760.68929	-38.53848	-46.72387	927.78936	-92.22668	45.33161	617.48282	-38.24292	-122.14641	621.25820	-180.71334	-39.17487	669.17952	-160.65987	-106.03633	670.04091	-143.80398	6.08952	326.74826	-207.93079	54.91925	310.50125	-400.28013	53.81815	117.39916	-390.00599	-14.56451	130.98747	-411.55633	17.23842	167.51012	-369.66467	15.00816	81.96202	34.06580	-25.17607	374.87041	13.48263	-86.71578	328.57715	-53.81709	-129.45755	72.72804	-85.48097	-66.33761	81.96589	-105.33479	-112.69010	105.21558	-23.00798	-81.85316	66.79169	13.24033	-167.17543	432.77281	-188.07704	121.34293	435.95686	6.90638	-165.34594	226.57941	-287.70663	118.36559	226.98195	
262	2.610	-161.33637	-56.30249	944.89515	-136.72083	-60.91041	763.30956	-26.65264	-44.79777	931.46551	-78.05736	43.64456	618.75730	-24.49678	-123.90916	625.22351	-166.64299	-39.68957	672.27621	-146.58663	-106.65612	674.50802	-125.39984	5.02251	328.06567	-189.95457	53.87976	311.72143	-384.60730	53.86694	121.90661	-373.28932	-14.58991	133.48284	-394.74323	16.07773	170.95715	-353.90416	16.50084	85.28242	39.86971	-29.14012	374.47390	18.12564	-90.58756	328.99456	-53.29976	-130.96672	73.30556	-85.19628	-68.06093	83.65267	-104.44245	-114.72675	106.82902	-22.92619	-83.08897	67.11112	21.72417	-170.44100	433.47989	-171.69148	119.60963	437.77438	10.17843	-168.19597	225.86321	-271.13128	117.48100	230.86784	
263	2.620	-149.82503	-54.75442	948.05747	-123.15982	-60.23189	766.83242	-15.08953	-42.66536	935.83308	-64.07925	41.79552	620.98085	-11.06042	-125.86307	629.96512	-152.78513	-40.35023	676.20697	-132.79200	-107.41710	679.66270	-106.54849	4.08607	330.54263	-171.62896	52.80624	313.93245	-367.84893	53.36813	126.60255	-355.03465	-15.08669	135.99788	-376.84861	14.08647	174.31807	-336.51543	17.86045	88.98677	44.66544	-33.62892	374.73143	21.75614	-95.06874	330.17149	-52.52814	-132.41383	74.20193	-84.62181	-69.76925	85.62997	-103.42177	-116.78206	108.63498	-22.56205	-84.23341	67.67625	29.46075	-174.13935	434.87908	-155.32939	117.85543	440.58097	12.77220	-171.46531	225.63969	-254.38025	116.29425	235.67669	
264	2.630	-138.53456	-53.00145	952.02375	-110.06406	-59.71242	771.14344	-3.82775	-40.37972	940.79068	-50.27115	39.84574	624.09531	2.08039	-127.94273	635.35836	-139.12654	-41.11438	680.86015	-119.26196	-108.28022	685.37141	-87.20955	3.34497	334.12744	-152.88817	51.74536	317.06482	-349.93894	52.35292	131.35822	-335.25356	-16.01870	138.50016	-357.83138	11.38038	177.53666	-317.50412	19.01743	92.97301	48.46141	-38.46936	375.55711	24.42597	-100.01210	332.01478	-51.48402	-133.75588	75.35800	-83.71443	-71.40521	87.80903	-102.24876	-118.78464	110.56012	-21.89077	-85.25380	68.42631	36.51267	-178.12962	436.85576	-138.96339	116.14076	444.28546	14.66815	-175.04992	225.88738	-237.31599	114.84930	241.23001	
265	2.640	-127.43370	-51.12994	956.66083	-97.42366	-59.35893	776.09041	7.17012	-38.00008	946.20388	-36.61311	37.85844	627.99129	14.93295	-130.08326	641.25278	-125.66095	-41.92719	686.08376	-105.99002	-109.19505	691.47663	-67.34716	2.83020	338.71536	-133.64928	50.73865	320.99585	-330.80618	50.90207	136.02626	-313.99988	-17.31182	140.96205	-337.66446	8.14763	180.56014	-296.90453	19.91402	97.12005	51.33142	-43.51309	376.87654	26.24591	-105.27331	334.43354	-50.16373	-134.97865	76.73967	-82.45446	-72.94103	90.13391	-100.90485	-120.69228	112.57034	-20.91297	-86.14651	69.31869	42.96404	-182.28352	439.29905	-122.53130	114.52021	448.73904	15.90265	-178.85540	226.58955	-219.74628	113.21339	247.28169	
266	2.650	-116.48075	-49.22744	961.80659	-85.22028	-59.16153	781.49222	17.95521	-35.58848	951.90993	-23.08974	35.89294	632.51384	27.49221	-132.22697	647.47872	-112.39238	-42.72530	691.69265	-92.98253	-110.10312	697.80257	-46.93550	2.53431	344.15940	-113.81976	49.81904	325.56215	-310.38286	49.14126	140.45442	-291.36504	-18.85938	143.36142	-316.34097	4.63235	183.34322	-274.77465	20.51338	101.29747	53.41593	-48.64530	378.62165	27.38040	-110.72106	337.33710	-48.56200	-136.09509	78.32766	-80.83167	-74.37922	92.57479	-99.36243	-122.49448	114.65921	-19.63721	-86.93308	70.32414	48.91164	-186.49457	442.10544	-105.94042	113.03942	453.74832	16.57699	-182.80210	227.72384	-201.44246	111.47607	253.54392	
